<?xml version="1.0"?>
<svg width="150" height="150" xmlns="http://www.w3.org/2000/svg" xmlns:svg="http://www.w3.org/2000/svg">
 <!-- Created with SVG-edit - https://github.com/SVG-Edit/svgedit-->
 <defs>
  <symbol height="1900" id="svg_1" version="1" viewBox="0 0 1425 1425" width="1900" xmlns="http://www.w3.org/2000/svg">
   <path d="m663.79,345.81c-74.03,9.19 -143.75,43.28 -197.46,96.58c-28.11,27.97 -46.48,52.74 -64.3,86.97c-37.85,72.92 -48.7,156.14 -31.03,238.8c18.23,85.45 72.92,164.91 148.07,215.42c54.83,36.6 119.12,56.22 185.78,56.36c37.71,0.14 70.27,-5.15 106.45,-16.97c51.49,-16.98 96.3,-44.81 135.82,-84.2c29.92,-30.05 49.68,-57.89 68.19,-96.16c22.55,-46.75 33.96,-97.41 33.96,-151.68c0,-93.93 -36.32,-181.88 -102.42,-247.71c-52.61,-52.6 -122.47,-87.39 -195.11,-97.41c-19.2,-2.5 -66.79,-2.64 -87.95,0m48.57,90.6l4.45,0.97l-0.41,121.21c-0.42,113 -0.7,121.76 -3.07,128.86c-5.84,17.81 -16.56,31.87 -33.95,44.81c-4.04,2.92 -9.05,7.93 -11.13,11.13l-3.76,5.85l0,78.34c0,65.13 0.28,78.63 1.95,79.6c4.03,2.51 29.5,5.01 49.54,4.87c27.83,-0.27 55.38,-5.42 76.26,-14.33l6.54,-2.78l0,-65.55c0,-54.96 -0.28,-66.24 -2.09,-69.44c-2.64,-5.28 -12.39,-9.88 -20.6,-9.88l-6.54,0l0,-86.83c0,-96.16 0.28,-99.22 9.05,-122.05c8.91,-23.1 23.66,-49.12 30.48,-53.85c3.61,-2.51 6.4,-3.06 15.16,-3.06l10.72,0l0,432.23l-10.16,5.84c-55.8,32.01 -137.63,35.91 -203.17,9.88c-57.06,-22.54 -104.51,-64.98 -133.46,-119.26c-20.31,-37.99 -28.66,-69.86 -29.91,-114.39c-0.84,-29.78 1.25,-50.09 7.93,-75.56c27.83,-108.41 123.01,-185.22 231.84,-187.31c5.42,0 11.97,0.28 14.33,0.7m188.01,19.34l0,17.4l-32.01,0l0,-34.79l32.01,0l0,17.39zm50.09,93.24l0,16l-32,0l0,-32.01l32,0l0,16.01zm-43.14,73.75l0,18.79l-36.18,0l0,-37.57l36.18,0l0,18.78zm104.37,-0.83l0,13.91l-13.22,0.42l-13.22,0.42l0,-28.53l26.44,0l0,13.78zm-32,62.76l0,19.48l-37.58,0l0,-38.96l37.58,0l0,19.48zm-55.67,64.01l0,18.09l-35.48,0l0,-36.18l35.48,0l0,18.09zm58.45,60.54l0,13.22l-26.44,0l0,-26.44l26.44,0l0,13.22z"/>
   <path d="m666.3,476.76c-85.31,15.45 -149.32,79.46 -168.38,168.39c-2.79,13.22 -3.21,19.06 -3.21,45.08c0,23.38 0.56,32.71 2.51,42.45c11.69,57.75 46.06,110.07 91.85,140.41c8.62,5.57 20.45,12.8 26.3,16l10.71,5.85l0.42,-15.03c0.28,-8.21 0.7,-40.08 0.84,-70.69l0.27,-55.81l-3.75,-7.51c-2.51,-4.87 -6.13,-9.32 -10.16,-12.25c-18.65,-13.77 -31.04,-30.05 -35.49,-46.89c-3.06,-11.69 -3.2,-133.04 -0.14,-135.55c1.25,-0.97 5.85,-1.53 12.25,-1.25l10.16,0.42l0.41,58.17c0.28,64.29 0.28,63.32 9.33,66.38c5.57,1.81 10.71,0.69 14.19,-3.06c2.37,-2.65 2.51,-7.24 3.2,-62.21l0.7,-59.28l25.05,0l0.7,58.45c0.55,42.86 1.11,59.28 2.36,61.51c2.09,3.62 10.02,6.4 14.75,5.29c1.95,-0.56 5.01,-2.51 6.82,-4.46l3.2,-3.48l0.42,-96.57c0.28,-91.71 0.14,-96.58 -2.09,-96.44c-1.39,0 -7.37,0.97 -13.22,2.09"/>
  </symbol>
 </defs>
 <g class="layer">
  <title>Layer 1</title>
  <use href="#svg_1" id="svg_2" transform="matrix(0.113998 0 0 0.106595 -31.8306 -22.3929)" y="4"/>
 </g>
</svg>